<?xml version="1.0" standalone="no"?>
<!DOCTYPE svg PUBLIC "-//W3C//DTD SVG 20010904//EN"
 "http://www.w3.org/TR/2001/REC-SVG-20010904/DTD/svg10.dtd">
<svg version="1.0" xmlns="http://www.w3.org/2000/svg"
 width="460.000000pt" height="460.000000pt" viewBox="0 0 460.000000 460.000000"
 preserveAspectRatio="xMidYMid meet">
<metadata>
Created by potrace 1.16, written by Peter Selinger 2001-2019
</metadata>
<g transform="translate(0.000000,460.000000) scale(0.100000,-0.100000)"
fill="#000000" stroke="none">
<path d="M0 2671 l0 -1930 78 35 c42 20 91 42 109 50 17 8 34 14 37 14 5 0 36
14 271 125 50 23 122 55 160 70 40 16 88 45 111 67 31 30 51 40 83 43 24 2 65
15 92 29 40 22 52 24 73 15 19 -9 37 -7 88 10 75 25 93 21 102 -20 4 -21 11
-29 26 -29 11 0 23 7 26 15 4 8 15 15 25 15 11 0 22 8 25 18 11 35 36 97 45
112 5 8 13 25 18 37 6 11 15 24 20 28 6 3 11 14 11 23 0 21 37 55 45 43 3 -5
2 -16 -1 -24 -3 -10 3 -18 17 -22 23 -8 99 -80 99 -94 0 -4 15 -23 33 -43 17
-19 46 -52 64 -72 18 -20 37 -36 43 -36 6 0 9 -4 5 -10 -8 -13 26 -50 47 -50
9 0 19 -4 22 -9 3 -5 15 -7 25 -4 13 3 21 -1 25 -14 10 -27 53 -54 91 -57 20
-2 50 -16 74 -35 39 -31 41 -31 41 -11 0 18 4 20 23 14 12 -3 30 -13 40 -22
15 -14 19 -13 35 1 16 15 21 15 47 1 16 -8 45 -14 65 -12 30 3 35 0 38 -20 3
-20 8 -22 41 -19 21 2 47 13 59 25 12 12 28 22 36 22 8 0 16 7 20 15 3 8 14
15 24 15 39 0 134 31 172 56 l40 26 37 -18 c21 -11 74 -44 118 -75 83 -57 242
-142 330 -175 96 -35 312 -151 346 -185 10 -10 37 -23 61 -30 169 -46 260 -94
310 -164 13 -19 45 -56 70 -83 25 -27 65 -80 88 -118 24 -38 65 -102 93 -141
l51 -73 213 0 213 0 0 2300 0 2300 -2300 0 -2300 0 0 -1929z m2213 1155 c12
-7 43 -16 69 -20 26 -3 75 -17 107 -31 33 -14 79 -25 102 -25 48 0 120 19 132
35 5 6 11 4 18 -7 5 -10 16 -18 23 -18 7 0 21 -9 32 -21 21 -23 89 -71 135
-95 17 -8 65 -22 107 -30 73 -14 165 -54 222 -96 14 -10 49 -22 78 -27 29 -4
60 -16 70 -25 35 -34 65 -56 78 -56 6 0 36 -27 65 -61 44 -51 55 -72 69 -132
16 -65 16 -82 4 -167 -8 -52 -18 -104 -23 -115 -5 -11 -14 -35 -21 -52 -14
-37 -18 -39 -46 -18 -10 8 -28 15 -39 15 -11 0 -42 12 -70 26 -44 21 -174 48
-228 46 -10 0 -31 -12 -48 -26 -17 -15 -35 -24 -40 -20 -14 9 -54 -28 -57 -55
-2 -15 0 -21 7 -17 6 4 11 2 11 -4 0 -6 11 -15 25 -20 14 -5 25 -14 25 -19 0
-15 45 -21 81 -10 49 14 158 13 201 -3 56 -20 99 -86 105 -162 4 -54 2 -62
-16 -74 -17 -10 -21 -10 -21 2 0 8 -10 25 -22 38 -13 13 -20 20 -17 15 7 -9 0
-47 -8 -47 -3 0 -28 18 -55 40 -55 43 -155 80 -218 80 -42 0 -110 -25 -110
-40 0 -12 7 -12 47 -1 37 11 53 -1 53 -40 0 -24 6 -29 61 -48 63 -21 82 -19
109 14 11 13 15 13 21 3 15 -24 10 -58 -8 -58 -20 -1 75 -50 95 -50 7 0 27 -7
43 -16 25 -12 30 -20 24 -37 -3 -12 -8 -56 -11 -97 -7 -107 -29 -219 -59 -291
-14 -34 -25 -67 -25 -72 0 -24 -46 -127 -57 -127 -8 0 -13 -13 -13 -30 0 -24
-4 -30 -17 -28 -12 2 -19 -4 -21 -19 -2 -13 -8 -23 -13 -23 -5 0 -14 -12 -20
-27 -16 -44 -63 -112 -76 -113 -7 0 -13 -5 -13 -12 0 -18 -44 -78 -57 -78 -16
0 -47 46 -39 58 3 5 0 24 -7 41 -10 28 -10 34 6 42 9 6 17 17 17 24 0 8 9 15
20 15 13 0 22 9 26 25 3 14 17 33 29 43 13 10 25 25 26 33 5 22 -44 151 -59
157 -7 2 -18 16 -23 29 -5 13 -14 21 -19 18 -23 -14 -102 93 -98 132 2 20 -2
28 -16 31 -20 4 -96 -26 -96 -38 0 -16 -31 -19 -63 -5 -23 9 -39 26 -51 54
-23 51 -61 85 -111 102 -22 7 -47 18 -55 24 -8 7 -32 19 -52 28 -20 10 -39 23
-41 30 -3 6 -12 -4 -20 -23 -21 -49 -62 -90 -90 -90 -12 0 -28 -5 -33 -10 -8
-8 -15 -6 -23 4 -10 12 -16 13 -32 3 -16 -9 -21 -9 -28 1 -13 21 -141 4 -197
-26 -10 -6 -27 -13 -36 -16 -10 -3 -18 -14 -18 -25 0 -11 -4 -23 -10 -26 -5
-3 -10 -20 -10 -36 0 -17 3 -28 8 -26 4 3 7 -29 8 -71 0 -61 -3 -79 -16 -89
-11 -8 -15 -21 -12 -42 2 -19 0 -31 -7 -31 -6 0 -11 5 -11 12 0 26 -10 -2 -15
-43 -3 -24 -10 -48 -15 -53 -12 -12 -24 37 -17 66 4 16 3 18 -6 9 -18 -18 -39
-13 -32 8 3 11 1 22 -5 26 -6 4 -9 14 -6 23 14 51 17 82 7 82 -6 0 -11 -9 -11
-20 0 -11 -7 -23 -15 -27 -20 -7 -33 6 -17 16 18 11 21 103 5 108 -7 3 -13 13
-13 23 0 10 -6 20 -12 23 -10 3 -10 9 0 29 7 13 12 42 10 64 -2 32 -7 40 -25
42 -26 4 -29 14 -10 34 7 7 18 26 25 42 11 25 11 31 -2 38 -9 5 -16 18 -16 28
0 11 -7 20 -15 20 -10 0 -15 10 -15 28 0 16 -7 43 -15 59 -8 17 -20 73 -25
124 -5 52 -18 119 -28 149 -21 66 -20 124 4 205 18 62 19 123 3 140 -13 14
-11 34 6 51 8 9 15 11 15 5 0 -6 5 -11 11 -11 5 0 10 8 9 18 -3 29 12 62 28
62 8 0 13 3 9 6 -3 4 1 13 9 21 8 9 17 13 20 10 3 -2 18 8 34 24 16 16 36 29
46 29 21 0 54 28 54 45 0 7 7 18 15 25 9 7 13 21 10 31 -5 14 -1 19 14 19 26
0 51 36 51 74 0 63 66 236 90 236 13 0 100 92 95 101 -5 8 16 16 48 18 10 0
28 -5 40 -13z m-858 -813 c76 -49 105 -157 52 -195 -20 -15 -27 -28 -27 -53 0
-24 -4 -32 -16 -31 -10 0 -21 -10 -26 -27 -12 -33 -1 -140 13 -132 5 4 9 14 9
24 0 10 9 26 20 36 20 18 20 17 18 -71 -1 -49 2 -99 6 -111 4 -14 3 -23 -3
-23 -6 0 -14 18 -17 40 -4 22 -13 45 -20 51 -8 6 -14 19 -15 28 0 9 -5 3 -10
-14 -11 -36 25 -207 48 -231 21 -21 23 -121 3 -134 -30 -19 -80 -11 -107 18
-39 42 -46 68 -27 108 9 19 13 41 10 50 -3 8 -1 24 4 34 14 26 5 43 -33 60
-22 10 -40 31 -58 68 -35 72 -47 234 -23 324 33 129 85 208 137 208 10 0 39
-12 62 -27z m1095 -978 c25 -9 59 -22 77 -30 17 -8 38 -15 46 -15 9 0 19 -4
22 -10 3 -5 18 -10 33 -10 29 -1 109 -26 183 -58 42 -18 89 -66 89 -90 0 -5
11 -17 25 -26 22 -14 25 -24 25 -72 0 -39 -4 -56 -15 -60 -8 -4 -15 -14 -15
-24 0 -11 -5 -22 -11 -26 -6 -3 -9 -18 -6 -33 6 -30 -8 -61 -27 -61 -14 0 -26
-21 -26 -47 0 -23 -28 -45 -49 -38 -15 4 -21 0 -25 -22 -5 -19 -17 -33 -39
-43 -18 -7 -40 -24 -50 -37 -12 -15 -29 -23 -48 -23 -16 0 -30 -4 -30 -10 -2
-15 -4 -22 -13 -48 -7 -22 -9 -22 -26 -7 -17 15 -19 15 -25 -4 -3 -12 -11 -18
-17 -15 -6 4 -17 0 -23 -10 -11 -14 -17 -15 -41 -5 -39 16 -68 18 -75 7 -11
-17 -65 2 -86 30 -12 16 -24 56 -30 97 -9 60 -8 72 6 82 9 7 22 13 30 13 14 0
13 -14 -5 -86 -7 -26 -6 -28 9 -15 10 7 17 26 17 41 0 16 7 30 16 34 20 8 34
-1 34 -20 0 -19 16 -18 24 1 3 8 12 15 19 15 8 0 20 -7 27 -15 7 -8 25 -15 41
-15 15 0 40 -5 55 -10 31 -12 104 -2 83 11 -10 6 0 14 33 29 42 18 84 57 74
67 -6 7 -200 53 -220 53 -10 0 -50 11 -88 25 -38 14 -76 25 -85 25 -8 0 -28 9
-44 21 -16 11 -33 18 -37 15 -5 -3 -27 8 -48 23 -23 17 -50 29 -66 28 -26 -2
-27 -4 -25 -49 1 -27 7 -48 12 -48 6 0 22 -15 37 -34 15 -19 35 -33 45 -32 18
1 20 -10 7 -52 -5 -18 -3 -21 10 -16 24 9 19 -9 -10 -37 l-26 -24 4 30 c3 27
0 30 -24 30 -16 -1 -28 3 -28 8 0 5 -7 7 -15 3 -10 -3 -15 1 -15 12 0 10 -6
27 -14 37 -12 17 -16 18 -32 5 -19 -16 -19 -19 4 58 10 30 0 47 -11 20 -3 -7
-6 0 -6 16 -1 24 -3 27 -16 16 -19 -16 -32 -6 -17 12 7 9 6 19 -4 32 -8 11
-14 14 -14 8 0 -7 -6 -12 -12 -12 -19 0 -47 55 -44 84 2 14 -1 26 -6 26 -5 0
-4 9 2 19 5 11 10 32 10 46 0 15 8 40 17 56 16 27 16 32 0 81 -13 40 -14 54
-4 60 27 17 59 6 102 -33 36 -33 48 -39 59 -30 11 9 19 9 34 0 17 -10 24 -10
37 1 15 12 19 12 31 -5 11 -15 17 -16 26 -7 16 16 58 15 77 -1 10 -8 28 -11
46 -8 l29 6 -49 31 c-28 18 -61 35 -75 39 -14 4 -41 17 -60 27 l-35 20 105 -6
c58 -3 125 -12 150 -21z"/>
<path d="M2120 3304 c-14 -7 -47 -14 -73 -14 -27 0 -57 -5 -68 -10 -16 -9 -19
-7 -19 9 0 27 -20 18 -48 -22 -12 -17 -34 -45 -48 -61 -24 -28 -25 -28 -45
-10 -21 19 -21 19 -18 -6 2 -14 10 -26 17 -26 22 -3 22 -4 2 -24 -11 -11 -20
-27 -20 -36 0 -8 -12 -31 -26 -49 -14 -19 -28 -52 -31 -74 -5 -37 -4 -40 23
-47 21 -6 30 -3 38 11 6 10 19 27 29 37 9 10 17 24 17 32 0 8 17 20 38 27 20
6 40 16 43 22 4 5 16 6 27 3 27 -9 18 -40 -16 -56 -25 -12 -25 -14 -7 -18 29
-6 43 -21 28 -30 -16 -10 -5 -52 13 -52 8 0 22 -4 32 -10 30 -16 146 -59 150
-55 2 2 -6 8 -17 14 -18 10 -19 14 -8 34 6 12 13 24 14 26 1 2 9 -4 18 -12 8
-9 41 -21 72 -27 l57 -12 27 32 c23 27 30 30 47 21 28 -15 73 -71 66 -82 -3
-5 1 -9 10 -9 8 0 21 -3 30 -6 55 -21 -52 101 -122 139 -48 26 -158 49 -193
40 -19 -5 -59 13 -59 27 0 5 12 13 28 17 l27 7 -30 6 c-16 4 -37 3 -46 -1 -22
-11 -44 26 -27 47 34 41 54 53 100 64 90 22 217 -14 287 -80 22 -21 53 -46 70
-56 39 -23 50 -46 59 -123 8 -74 32 -98 32 -32 0 49 15 60 39 29 22 -26 20
-27 44 25 10 22 32 47 54 60 29 16 33 23 20 25 -13 3 -16 9 -12 23 6 19 -14
49 -33 49 -6 0 -12 6 -15 13 -3 9 -9 9 -26 -1 -19 -11 -21 -10 -21 8 0 11 -6
20 -14 20 -7 0 -21 11 -30 25 -9 14 -33 29 -56 35 -22 6 -40 15 -40 19 0 16
-70 42 -138 53 -37 6 -69 14 -72 19 -6 9 -116 40 -140 38 -8 -1 -26 -7 -40
-15z"/>
</g>
</svg>
